<svg xmlns="http://www.w3.org/2000/svg" viewBox="0 0 788.76 322.56"><defs><style>.cls-1,.cls-2,.cls-3{fill:#fff;}.cls-2{stroke:#fff;stroke-miterlimit:10;stroke-width:3px;}.cls-3{font-size:78px;font-family:MyriadPro-Regular, Myriad Pro;}.cls-4{letter-spacing:-0.04em;}.cls-5{letter-spacing:-0.04em;}.cls-6{letter-spacing:0em;}</style></defs><g id="Layer_2" data-name="Layer 2"><g id="Layer_1-2" data-name="Layer 1"><g id="LOGO_3" data-name="LOGO 3"><path class="cls-1" d="M115.07,48H72.88V0H211.6V48H169.69V213.87H115.07Z"/><path class="cls-1" d="M233.57,0h70.8c24,0,66.76,0,94.51,39.88,14.74,20.23,19.65,43.07,19.65,66.48,0,58.38-28.9,107.51-110.11,107.51H233.57Zm54.62,165.89H311.6c40.75,0,52.31-28.32,52.31-58.67,0-12.14-2.6-27.45-10.41-39.59C347.15,58.09,336.16,48,311.89,48h-23.7Z"/><path class="cls-1" d="M476.05,213.87H416.8L501.48,0h47.11l82.08,213.87H570.84l-10.11-30.93H485.88ZM522.58,65l-23.12,74.56h47.11Z"/><path class="cls-1" d="M670.85,136.12,607,0h59.25L698,85.84,730.09,0h58.67L725.47,136.12v77.75H670.85Z"/></g><polygon class="cls-1" points="52.6 53.57 4.73 53.47 4.69 116.67 52.56 116.58 52.6 53.57"/><polygon class="cls-1" points="4.74 110.31 4.68 213.76 52.51 213.76 52.58 110.21 4.74 110.31"/><polygon class="cls-1" points="211.5 47.98 211.6 0.11 72.98 0 72.88 47.87 115.18 47.98 115.13 116.47 169.65 116.36 169.69 47.87 211.5 47.98"/><polygon class="cls-1" points="115.07 213.76 169.59 213.76 169.65 116.36 115.13 116.47 115.07 213.76"/><path class="cls-1" d="M311.6,166l-23.52-.11V116.14l-54.47.1,0,97.52h74.85c88.47,0,107.37-57.49,109.73-97.87l-54.49.11C361.66,140.53,350.27,166,311.6,166Z"/><path class="cls-1" d="M398.79,39.94C371.08.11,327.69.11,304.37.11L233.67,0l-.06,116.24,54.47-.1V47.87h23.81c25.61,0,36.06,11.24,41.7,19.7C360.22,77.87,364,92.33,364,107.22c0,2.88-.11,5.82-.35,8.78l54.49-.11c.19-3.3.28-6.5.28-9.53C418.43,79.8,412,58.08,398.79,39.94Z"/><polygon class="cls-1" points="546.71 139.7 499.32 139.7 506.75 115.73 455.74 115.82 416.96 213.76 475.95 213.84 485.88 182.84 560.83 182.91 570.84 213.76 630.52 213.76 592.86 115.57 538.98 115.67 546.71 139.7"/><polygon class="cls-1" points="501.58 0.04 455.74 115.82 506.75 115.73 522.58 64.68 538.98 115.67 592.86 115.57 548.59 0.11 501.58 0.04"/><polygon class="cls-1" points="670.95 136.12 670.85 213.76 725.36 213.76 725.37 136.08 735.03 115.3 661.25 115.44 670.95 136.12"/><polygon class="cls-1" points="730.19 0.04 698.01 86.14 666.22 0.11 607.14 0.11 661.25 115.44 735.03 115.3 788.6 0.11 730.19 0.04"/><circle class="cls-1" cx="28.64" cy="23.97" r="23.94"/><line class="cls-2" x1="4.71" y1="225.98" x2="729.94" y2="225.98"/><text class="cls-3" transform="translate(-12 302.96)"></text></g></g></svg>